<mxfile host="app.diagrams.net" modified="2020-06-08T08:24:57.802Z" agent="5.0 (Windows)" etag="mMOlBS0W_tq0M5KXS8mP" version="13.1.14" type="github">
  <diagram id="C5RBs43oDa-KdzZeNtuy" name="Page-1">
    <mxGraphModel dx="1360" dy="831" grid="1" gridSize="10" guides="1" tooltips="1" connect="1" arrows="1" fold="1" page="1" pageScale="1" pageWidth="827" pageHeight="1169" math="0" shadow="0">
      <root>
        <mxCell id="WIyWlLk6GJQsqaUBKTNV-0" />
        <mxCell id="WIyWlLk6GJQsqaUBKTNV-1" parent="WIyWlLk6GJQsqaUBKTNV-0" />
        <mxCell id="nvHDWdZnBjOkGi9NeRLB-8" style="edgeStyle=orthogonalEdgeStyle;rounded=0;orthogonalLoop=1;jettySize=auto;html=1;exitX=0.5;exitY=1;exitDx=0;exitDy=0;entryX=0.5;entryY=0;entryDx=0;entryDy=0;" edge="1" parent="WIyWlLk6GJQsqaUBKTNV-1" source="nvHDWdZnBjOkGi9NeRLB-2" target="nvHDWdZnBjOkGi9NeRLB-3">
          <mxGeometry relative="1" as="geometry" />
        </mxCell>
        <mxCell id="nvHDWdZnBjOkGi9NeRLB-2" value="Akquire image and profile" style="shape=process;whiteSpace=wrap;html=1;backgroundOutline=1;" vertex="1" parent="WIyWlLk6GJQsqaUBKTNV-1">
          <mxGeometry x="346" y="50" width="136" height="60" as="geometry" />
        </mxCell>
        <mxCell id="nvHDWdZnBjOkGi9NeRLB-9" style="edgeStyle=orthogonalEdgeStyle;rounded=0;orthogonalLoop=1;jettySize=auto;html=1;exitX=0.5;exitY=1;exitDx=0;exitDy=0;entryX=0.5;entryY=0;entryDx=0;entryDy=0;" edge="1" parent="WIyWlLk6GJQsqaUBKTNV-1" source="nvHDWdZnBjOkGi9NeRLB-3" target="nvHDWdZnBjOkGi9NeRLB-4">
          <mxGeometry relative="1" as="geometry" />
        </mxCell>
        <mxCell id="nvHDWdZnBjOkGi9NeRLB-3" value="Check for rouge processes" style="shape=process;whiteSpace=wrap;html=1;backgroundOutline=1;" vertex="1" parent="WIyWlLk6GJQsqaUBKTNV-1">
          <mxGeometry x="346" y="140" width="136" height="60" as="geometry" />
        </mxCell>
        <mxCell id="nvHDWdZnBjOkGi9NeRLB-10" style="edgeStyle=orthogonalEdgeStyle;rounded=0;orthogonalLoop=1;jettySize=auto;html=1;exitX=0.5;exitY=1;exitDx=0;exitDy=0;entryX=0.5;entryY=0;entryDx=0;entryDy=0;" edge="1" parent="WIyWlLk6GJQsqaUBKTNV-1" source="nvHDWdZnBjOkGi9NeRLB-4" target="nvHDWdZnBjOkGi9NeRLB-5">
          <mxGeometry relative="1" as="geometry" />
        </mxCell>
        <mxCell id="nvHDWdZnBjOkGi9NeRLB-4" value="Check for rouge handles and dlls" style="shape=process;whiteSpace=wrap;html=1;backgroundOutline=1;" vertex="1" parent="WIyWlLk6GJQsqaUBKTNV-1">
          <mxGeometry x="346" y="230" width="136" height="60" as="geometry" />
        </mxCell>
        <mxCell id="nvHDWdZnBjOkGi9NeRLB-11" style="edgeStyle=orthogonalEdgeStyle;rounded=0;orthogonalLoop=1;jettySize=auto;html=1;exitX=0.5;exitY=1;exitDx=0;exitDy=0;entryX=0.5;entryY=0;entryDx=0;entryDy=0;" edge="1" parent="WIyWlLk6GJQsqaUBKTNV-1" source="nvHDWdZnBjOkGi9NeRLB-5" target="nvHDWdZnBjOkGi9NeRLB-6">
          <mxGeometry relative="1" as="geometry" />
        </mxCell>
        <mxCell id="nvHDWdZnBjOkGi9NeRLB-5" value="Check for network artifacts" style="shape=process;whiteSpace=wrap;html=1;backgroundOutline=1;" vertex="1" parent="WIyWlLk6GJQsqaUBKTNV-1">
          <mxGeometry x="346" y="320" width="136" height="60" as="geometry" />
        </mxCell>
        <mxCell id="nvHDWdZnBjOkGi9NeRLB-12" style="edgeStyle=orthogonalEdgeStyle;rounded=0;orthogonalLoop=1;jettySize=auto;html=1;exitX=0.5;exitY=1;exitDx=0;exitDy=0;entryX=0.5;entryY=0;entryDx=0;entryDy=0;" edge="1" parent="WIyWlLk6GJQsqaUBKTNV-1" source="nvHDWdZnBjOkGi9NeRLB-6" target="nvHDWdZnBjOkGi9NeRLB-7">
          <mxGeometry relative="1" as="geometry" />
        </mxCell>
        <mxCell id="nvHDWdZnBjOkGi9NeRLB-6" value="&lt;div&gt;Check for memory injection&lt;/div&gt;" style="shape=process;whiteSpace=wrap;html=1;backgroundOutline=1;" vertex="1" parent="WIyWlLk6GJQsqaUBKTNV-1">
          <mxGeometry x="346" y="410" width="136" height="60" as="geometry" />
        </mxCell>
        <mxCell id="nvHDWdZnBjOkGi9NeRLB-7" value="&lt;div&gt;Check for hooking&lt;/div&gt;&amp;nbsp;/ rootkits" style="shape=process;whiteSpace=wrap;html=1;backgroundOutline=1;" vertex="1" parent="WIyWlLk6GJQsqaUBKTNV-1">
          <mxGeometry x="346" y="500" width="136" height="60" as="geometry" />
        </mxCell>
      </root>
    </mxGraphModel>
  </diagram>
</mxfile>
